<svg xmlns:xlink="http://www.w3.org/1999/xlink" width="21" height="12" viewBox="0 0 47 26" fill="none" xmlns="http://www.w3.org/2000/svg"><path d="M0.75 0.000610352H46.2622V15.383C46.2622 16.7596 45.9803 18.1228 45.4327 19.3944C44.885 20.6661 44.0824 21.8214 43.0706 22.7942C42.0588 23.7669 40.8578 24.5382 39.5361 25.0637C38.2145 25.5892 36.7983 25.8588 35.3683 25.857H0.75V0.000610352Z" fill="#FF00A6"></path><path d="M10.4603 21.3401H5.89941V4.96958C8.35901 4.10025 9.4944 3.81824 11.5328 3.81824C15.6749 3.81824 18.1127 6.1489 18.1127 10.111C18.1127 13.5511 15.8419 16.0822 12.1017 16.0822C11.5542 16.0993 11.0062 16.0861 10.4603 16.0426V21.3401ZM10.4603 12.2156C11.0345 12.3291 11.6197 12.383 12.2058 12.3764C12.8352 12.3764 13.4452 11.4255 13.4452 10.0691C13.4452 8.30942 12.719 7.68247 11.7216 7.68247C11.2978 7.67726 10.8747 7.71791 10.4603 7.80367V12.2156Z" fill="#FFFFFF"></path><path d="M28.2654 4.10025L27.7594 7.98546C27.5776 7.96836 27.395 7.96136 27.2123 7.96448C25.3846 7.96448 24.208 8.59376 23.6391 9.9269V15.8491H19.0782V9.9269C19.0782 8.34904 19.0153 5.73171 18.7441 4.01867L22.9879 3.81824C23.1061 4.38533 23.1869 4.95904 23.23 5.53593C24.0265 4.76915 25.2877 3.81824 26.6337 3.81824C27.1896 3.82921 27.7403 3.92438 28.2654 4.10025Z" fill="#FFFFFF"></path><path d="M40.498 9.76609C40.498 13.4299 38.186 16.0798 34.0657 16.0798C30.0519 16.0798 27.7715 13.5161 27.7715 10.0504C27.7715 6.22581 30.1463 3.81824 34.2449 3.81824C38.249 3.81824 40.498 6.06033 40.498 9.76609ZM34.1722 7.66849C33.141 7.66849 32.4268 8.09267 32.4268 9.99915C32.4268 11.577 33.0562 12.2436 34.1505 12.2436C35.3899 12.2436 35.8451 11.3533 35.8451 9.87563C35.8523 8.2698 35.3682 7.6615 34.1722 7.6615V7.66849Z" fill="#FFFFFF"></path></svg>